# xmcd
#
# Track frame offsets: 
#        187
#        14572
#        29990
#        46297
#        61727
#        77240
#        92090
#        106997
#        122550
#        137702
#        154372
#        169942
#        186340
#        203442
#        220740
#        236842
#        254355
#        271710
#        289275
#
# Disc length: 4092 seconds
#
# Revision: 0
# Processed by: cddbd v1.5.2PL0 Copyright (c) Steve Scherf et al.
# Submitted via: ExactAudioCopy v1.0b3
#
DISCID=180ffa13
DTITLE=フランク永井 - TWIN BEST フランク永井 Disc 1 VICL-41268-69
DYEAR=1900
DGENRE=JPop
TTITLE0=16トン
TTITLE1=場末のペット吹き 
TTITLE2=たそがれシャンソン
TTITLE3=13,800円
TTITLE4=東京午前三時 
TTITLE5=羽田発7時50分
TTITLE6=夜霧の第二国道 
TTITLE7=有楽町で逢いましょう 
TTITLE8=街角のギター 
TTITLE9=公園の手品師 
TTITLE10=西銀座駅前 
TTITLE11=こいさんのラブ・コール
TTITLE12=ラブ・レター 
TTITLE13=俺は淋しいんだ 
TTITLE14=夜霧に消えたチャコ 
TTITLE15=初恋の山 
TTITLE16=恋夜 
TTITLE17=冷いキッス 
TTITLE18=東京ナイト・クラブ 
EXTD=
EXTT0=
EXTT1=
EXTT2=
EXTT3=
EXTT4=
EXTT5=
EXTT6=
EXTT7=
EXTT8=
EXTT9=
EXTT10=
EXTT11=
EXTT12=
EXTT13=
EXTT14=
EXTT15=
EXTT16=
EXTT17=
EXTT18=
PLAYORDER=
